<?xml version="1.0" encoding="UTF-8"?>
<svg width="1920" height="2160" style="isolation:isolate" version="1.1" viewBox="-13 -110 1920 2160"
    xmlns="http://www.w3.org/2000/svg"
    xmlns:cc="http://creativecommons.org/ns#"
    xmlns:dc="http://purl.org/dc/elements/1.1/"
    xmlns:rdf="http://www.w3.org/1999/02/22-rdf-syntax-ns#"
    xmlns:xlink="http://www.w3.org/1999/xlink">
    <title>home page design</title>
    <metadata>
        <rdf:RDF>
            <cc:Work rdf:about="">
                <dc:format>image/svg+xml</dc:format>
                <dc:type rdf:resource="http://purl.org/dc/dcmitype/StillImage"/>
                <dc:title>home page design</dc:title>
                <dc:creator>
                    <cc:Agent>
                        <dc:title>Udar</dc:title>
                    </cc:Agent>
                </dc:creator>
                <dc:subject>
                    <rdf:Bag>
                        <rdf:li>home page design</rdf:li>
                    </rdf:Bag>
                </dc:subject>
                <dc:description>this is the desgn for my home page</dc:description>
            </cc:Work>
        </rdf:RDF>
    </metadata>
    <defs>
        <clipPath id="e">
            <rect x="-13" y="-110" width="1920" height="2173"/>
        </clipPath>
        <style>@import url('https://fonts.googleapis.com/css?family=Abril+Fatface|Acme|Anton|Bree+Serif|Lobster|Merriweather|Pacifico|Permanent+Marker|Righteous|Staatliches|Ubuntu|ZCOOL+KuaiLe');</style>
        <clipPath id="a">
            <flowRoot transform="matrix(1 0 0 1.0027 21.551 -15.103)" fill="#000000" font-family="sans-serif" font-size="40px" letter-spacing="0px" word-spacing="0px" style="line-height:1.25" xml:space="preserve">
                <flowRegion>
                    <rect x="53.725" y="159.63" width="1830.2" height="481.74"/>
                </flowRegion>
                <flowPara font-family="'ZCOOL KuaiLe', cursive" font-size="400px">My Ideas</flowPara>
            </flowRoot>
        </clipPath>
    </defs>
    <g transform="translate(0,-13)" clip-path="url(#e)">
        <rect x="751" y="1418" width="392" height="645" fill="#2d2c2c" fill-opacity=".3"/>
        <rect x="767" y="1972" width="356" height="71" fill="#fff"/>
        <linearGradient id="d" x1=".014568" x2=".99124" y1=".0047832" y2=".99191" gradientTransform="matrix(356,0,0,495,765,1444)" gradientUnits="userSpaceOnUse">
            <stop stop-color="#ebebeb" offset="0"/>
            <stop stop-color="#a6a6a6" offset="1"/>
        </linearGradient>
        <rect x="765" y="1444" width="356" height="495" fill="url(#d)"/>
        <rect x="1470" y="872" width="392" height="645" fill="#2d2c2c" fill-opacity=".3"/>
        <clipPath id="f">
            <rect x="1470" y="872" width="392" height="645" fill="#2d2c2c" fill-opacity=".3"/>
        </clipPath>
        <g clip-path="url(#f)">
            <rect x="1486" y="1426" width="356" height="71" fill="#fff"/>
        </g>
        <linearGradient id="c" x1=".014568" x2=".99124" y1=".0047832" y2=".99191" gradientTransform="matrix(356,0,0,495,1486,896.5)" gradientUnits="userSpaceOnUse">
            <stop stop-color="#ebebeb" offset="0"/>
            <stop stop-color="#a6a6a6" offset="1"/>
        </linearGradient>
        <rect x="1486" y="896.5" width="356" height="495" fill="url(#c)"/>
        <rect x="52" y="872" width="392" height="645" fill="#2d2c2c" fill-opacity=".3"/>
        <rect x="68" y="1426" width="356" height="71" fill="#fff"/>
        <linearGradient id="b" x1=".014568" x2=".99124" y1=".0047832" y2=".99191" gradientTransform="matrix(356,0,0,495,69,896.5)" gradientUnits="userSpaceOnUse">
            <stop stop-color="#ebebeb" offset="0"/>
            <stop stop-color="#a6a6a6" offset="1"/>
        </linearGradient>
        <rect x="69" y="896.5" width="356" height="495" fill="url(#b)"/>
        <g transform="matrix(1 0 0 .99726 0 2.2315)">
            <g transform="translate(1.2663)">
                <path d="m60.01-17h1774c40.295 0 73.01 32.715 73.01 73.01v685.98c0 40.295-32.715 73.01-73.01 73.01h-1774c-40.295 0-73.01-32.715-73.01-73.01v-685.98c0-40.295 32.715-73.01 73.01-73.01z" fill="#2d2c2c" opacity=".3"/>
                <g transform="matrix(5.449,0,0,5.449,59.6,136.25)"></g>
                <image x="36.789" y="-481.52" width="1806.9" height="1109.3" clip-path="url(#a)" preserveAspectRatio="none" xlink:href="test_background_1.jpg"/>
            </g>
        </g>
    </g>
</svg>