<?xml version="1.0" standalone="no"?>
<svg
    xmlns="http://www.w3.org/2000/svg"
    xmlns:xlink="http://www.w3.org/1999/xlink" style="isolation:isolate" viewBox="-13 -110 1920 2173" width="1920" height="2173">
    <defs>
        <clipPath id="_clipPath_pL2OF0M2ZIBr4R60S6yamSV83gHRYcIc">
            <rect x="-13" y="-110" width="1920" height="2173"/>
        </clipPath>
    </defs>
    <g clip-path="url(#_clipPath_pL2OF0M2ZIBr4R60S6yamSV83gHRYcIc)">
        <g>
            <g>
                <g>
                    <rect x="751" y="1418" width="392" height="645" transform="matrix(1,0,0,1,0,0)" fill="rgb(45,44,44)" fill-opacity="0.3"/>
                    <rect x="767" y="1972" width="356" height="71" transform="matrix(1,0,0,1,0,0)" fill="rgb(255,255,255)"/>
                    <linearGradient id="_lgradient_0" x1="0.014568240698560359" y1="0.004783184250304771" x2="0.9912440367081059" y2="0.9919081445348917" gradientTransform="matrix(356,0,0,495,765,1444)" gradientUnits="userSpaceOnUse">
                        <stop offset="0%" stop-opacity="1" style="stop-color:rgb(235,235,235)"/>
                        <stop offset="100%" stop-opacity="1" style="stop-color:rgb(166,166,166)"/>
                    </linearGradient>
                    <rect x="765" y="1444" width="356" height="495" transform="matrix(1,0,0,1,0,0)" fill="url(#_lgradient_0)"/>
                </g>
                <g>
                    <rect x="1470" y="872" width="392" height="645" transform="matrix(1,0,0,1,0,0)" fill="rgb(45,44,44)" fill-opacity="0.3"/>
                    <clipPath id="_clipPath_miPZCffnW18AU0jZ0X8s4AKtXxL0Jbrj">
                        <rect x="1470" y="872" width="392" height="645" transform="matrix(1,0,0,1,0,0)" fill="rgb(45,44,44)" fill-opacity="0.3"/>
                    </clipPath>
                    <g clip-path="url(#_clipPath_miPZCffnW18AU0jZ0X8s4AKtXxL0Jbrj)">
                        <rect x="1486" y="1426" width="356" height="71" transform="matrix(1,0,0,1,0,0)" fill="rgb(255,255,255)"/>
                    </g>
                    <linearGradient id="_lgradient_1" x1="0.014568240698560359" y1="0.004783184250304771" x2="0.9912440367081059" y2="0.9919081445348917" gradientTransform="matrix(356,0,0,495,1486,896.5)" gradientUnits="userSpaceOnUse">
                        <stop offset="0%" stop-opacity="1" style="stop-color:rgb(235,235,235)"/>
                        <stop offset="100%" stop-opacity="1" style="stop-color:rgb(166,166,166)"/>
                    </linearGradient>
                    <rect x="1486" y="896.5" width="356" height="495" transform="matrix(1,0,0,1,0,0)" fill="url(#_lgradient_1)"/>
                </g>
                <g>
                    <rect x="52" y="872" width="392" height="645" transform="matrix(1,0,0,1,0,0)" fill="rgb(45,44,44)" fill-opacity="0.3"/>
                    <rect x="68" y="1426" width="356" height="71" transform="matrix(1,0,0,1,0,0)" fill="rgb(255,255,255)"/>
                    <linearGradient id="_lgradient_2" x1="0.014568240698560359" y1="0.004783184250304771" x2="0.9912440367081059" y2="0.9919081445348917" gradientTransform="matrix(356,0,0,495,69,896.5)" gradientUnits="userSpaceOnUse">
                        <stop offset="0%" stop-opacity="1" style="stop-color:rgb(235,235,235)"/>
                        <stop offset="100%" stop-opacity="1" style="stop-color:rgb(166,166,166)"/>
                    </linearGradient>
                    <rect x="69" y="896.5" width="356" height="495" transform="matrix(1,0,0,1,0,0)" fill="url(#_lgradient_2)"/>
                </g>
            </g>
            <g>
                <g>
                    <path d="M 60.01 -17 L 1833.99 -17 C 1874.285 -17 1907 15.715 1907 56.01 L 1907 741.99 C 1907 782.285 1874.285 815 1833.99 815 L 60.01 815 C 19.715 815 -13 782.285 -13 741.99 L -13 56.01 C -13 15.715 19.715 -17 60.01 -17 Z" style="stroke:none;fill:#2D2C2C;stroke-miterlimit:10;opacity:0.3;"/>
                    <linearGradient id="_lgradient_3" x1="0" y1="0.5" x2="1" y2="0.5" gradientTransform="matrix(1749.4,0,0,925,59.6,-110)" gradientUnits="userSpaceOnUse">
                        <stop offset="0%" stop-opacity="1" style="stop-color:rgb(51,0,134)"/>
                        <stop offset="100%" stop-opacity="1" style="stop-color:rgb(249,2,195)"/>
                    </linearGradient>
                    <rect x="59.6" y="-110" width="1749.4" height="925" transform="matrix(1,0,0,1,0,0)" fill="url(#_lgradient_3)"/>
                    <g transform="matrix(5.449,0,0,5.449,59.6,136.25)">
                        <text transform="matrix(1,0,0,1,0,76.957)" style="font-family:'Open Sans';font-weight:400;font-size:72px;font-style:normal;fill:#000000;stroke:none;">My  Ideas </text>
                    </g>
                </g>
            </g>
        </g>
    </g>
</svg>