<?xml version="1.0" standalone="no"?><!-- Generator: Gravit.io --><svg xmlns="http://www.w3.org/2000/svg" xmlns:xlink="http://www.w3.org/1999/xlink" style="isolation:isolate" viewBox="-36.891 -18.769 163.591 326.577" width="163.591" height="326.577"><defs><clipPath id="_clipPath_OS2jevNOpFcNQbGLPPZz3kkFkpo1Ier2"><rect x="-36.891" y="-18.769" width="163.591" height="326.577"/></clipPath></defs><g clip-path="url(#_clipPath_OS2jevNOpFcNQbGLPPZz3kkFkpo1Ier2)"><g><path d=" M 46.8 52 L 121 295.8 C 108.295 298.728 91.982 301.815 72 305 L 46.8 52 Z " fill="rgb(0,0,0)" fill-opacity="0.35" vector-effect="non-scaling-stroke" stroke-width="1" stroke="rgb(0,0,0)" stroke-opacity="0.2" stroke-linejoin="miter" stroke-linecap="square" stroke-miterlimit="3"/><path d=" M 72 305 L 46.8 51 L 21 305 C 37.276 306.739 54.286 306.749 72 305 Z " fill="rgb(0,0,0)" fill-opacity="0.35" vector-effect="non-scaling-stroke" stroke-width="1" stroke="rgb(0,0,0)" stroke-opacity="0.2" stroke-linejoin="miter" stroke-linecap="square" stroke-miterlimit="3"/><path d=" M 46.8 50.8 L -28 291 C -22.267 293.067 1.067 302.4 20.867 305 L 46.8 50.8 Z " fill="rgb(0,0,0)" fill-opacity="0.35" vector-effect="non-scaling-stroke" stroke-width="1" stroke="rgb(0,0,0)" stroke-opacity="0.2" stroke-linejoin="miter" stroke-linecap="square" stroke-miterlimit="3"/></g><g><circle vector-effect="non-scaling-stroke" cx="44.90468750000004" cy="63.026041666666636" r="81.79531249999991" fill="rgb(128,179,255)"/><g opacity="0.17"><path d=" M 50.157 17.391 L 122.113 90.179 C 107.953 124.982 82.538 143.205 45.84 144.819 L 11.281 110.242 L 79.866 110.225 L 79.864 100.784 L 50.8 100.867 L 45.467 95.533 L 83.613 57.084 L 75.011 48.91 L 50.638 73.528 L 50.157 17.391 Z " fill="rgb(0,0,0)"/></g><path d=" M 38.65 16.6 L 49.65 16.6 L 50.15 74.725 L 75.025 49.6 L 82.9 57.1 L 44.525 95.225 L 6.15 57.1 L 13.9 49.6 L 38.65 73.6 L 38.65 16.6 Z  M 9.712 101.287 L 79.369 101.287 L 79.369 109.725 L 9.9 109.725 L 9.712 101.287 Z " fill-rule="evenodd" fill="rgb(255,255,255)" vector-effect="non-scaling-stroke" stroke-width="1" stroke="rgb(255,255,255)" stroke-linejoin="miter" stroke-linecap="square" stroke-miterlimit="3"/></g></g></svg>